<svg xmlns="http://www.w3.org/2000/svg" width="200" height="200" viewBox="0 0 200 200">
    <rect width="200" height="200" fill="transparent" />
    <text x="100" y="20" font-family="Arial" font-size="12" text-anchor="middle" fill="#666">olive</text><circle cx="89.62111312190537" cy="178.92308907984938" r="15.852092787185892" fill="#424242" /><circle cx="89.62111312190537" cy="178.92308907984938" r="9.511255672311535" fill="#f5f5f5" /><circle cx="21.449971594032533" cy="53.998503263600966" r="5.0335028735896925" fill="#424242" /><circle cx="21.449971594032533" cy="53.998503263600966" r="3.0201017241538155" fill="#f5f5f5" /><circle cx="161.20147299354448" cy="105.90961537445668" r="12.633765131426795" fill="#424242" /><circle cx="161.20147299354448" cy="105.90961537445668" r="7.580259078856077" fill="#f5f5f5" /><circle cx="146.99149675047158" cy="51.3052229885584" r="6.866586697231415" fill="#424242" /><circle cx="146.99149675047158" cy="51.3052229885584" r="4.119952018338848" fill="#f5f5f5" /><circle cx="178.7612871464392" cy="60.795314906980735" r="14.560105346397561" fill="#424242" /><circle cx="178.7612871464392" cy="60.795314906980735" r="8.736063207838537" fill="#f5f5f5" /><circle cx="29.14239116213558" cy="96.52970658699495" r="8.931644979375918" fill="#424242" /><circle cx="29.14239116213558" cy="96.52970658699495" r="5.35898698762555" fill="#f5f5f5" /><circle cx="72.38308677533308" cy="97.86683297985621" r="15.582796181247984" fill="#424242" /><circle cx="72.38308677533308" cy="97.86683297985621" r="9.34967770874879" fill="#f5f5f5" /><circle cx="141.40222590000167" cy="46.13158153925688" r="6.843624907609556" fill="#424242" /><circle cx="141.40222590000167" cy="46.13158153925688" r="4.106174944565733" fill="#f5f5f5" /><circle cx="134.7230282052195" cy="116.74725719873359" r="7.999328491496503" fill="#424242" /><circle cx="134.7230282052195" cy="116.74725719873359" r="4.799597094897901" fill="#f5f5f5" /><circle cx="61.673467574019014" cy="62.68161311458441" r="15.05825853972051" fill="#424242" /><circle cx="61.673467574019014" cy="62.68161311458441" r="9.034955123832306" fill="#f5f5f5" /><circle cx="68.1596911982621" cy="106.63956985938209" r="5.866460360437652" fill="#424242" /><circle cx="68.1596911982621" cy="106.63956985938209" r="3.5198762162625914" fill="#f5f5f5" /><circle cx="175.0142565370625" cy="108.34459753761338" r="8.135483333946347" fill="#424242" /><circle cx="175.0142565370625" cy="108.34459753761338" r="4.881290000367808" fill="#f5f5f5" /><circle cx="95.37667534445691" cy="98.1257168785618" r="5.2283133140201" fill="#424242" /><circle cx="95.37667534445691" cy="98.1257168785618" r="3.1369879884120597" fill="#f5f5f5" /></svg>