<svg xmlns="http://www.w3.org/2000/svg" width="200" height="200" viewBox="0 0 200 200">
    <rect width="200" height="200" fill="transparent" />
    <text x="100" y="20" font-family="Arial" font-size="12" text-anchor="middle" fill="#666">pineapple</text><rect x="102.19213244645265" y="139.37892781702433" width="15.13998906846374" height="15.13998906846374" fill="#ffc107" /><rect x="132.56155908537465" y="79.92018346048654" width="13.09838711966399" height="13.09838711966399" fill="#ffc107" /><rect x="165.34445152384617" y="160.25991355278248" width="11.300084278096097" height="11.300084278096097" fill="#ffc107" /><rect x="122.98732587239601" y="122.37061346807576" width="19.310772293932008" height="19.310772293932008" fill="#ffc107" /><rect x="117.18533128156432" y="164.5601702784072" width="9.760043245355075" height="9.760043245355075" fill="#ffc107" /><rect x="41.43564864155725" y="106.80476815202584" width="15.835618422492374" height="15.835618422492374" fill="#ffc107" /><rect x="30.00367808758816" y="90.36499661632145" width="14.486593816765653" height="14.486593816765653" fill="#ffc107" /><rect x="129.2422779422316" y="111.75147965303529" width="18.297115149667817" height="18.297115149667817" fill="#ffc107" /><rect x="64.84981576837977" y="100.86342533139694" width="11.768003033967181" height="11.768003033967181" fill="#ffc107" /><rect x="103.67774141135106" y="95.55137373655747" width="19.732506748624072" height="19.732506748624072" fill="#ffc107" /><rect x="46.740025677691555" y="120.344023414597" width="14.069703893796486" height="14.069703893796486" fill="#ffc107" /><rect x="110.21638569753877" y="71.29389749184179" width="13.955147237573263" height="13.955147237573263" fill="#ffc107" /><rect x="22.99910229588304" y="98.38832057836633" width="8.609635155731862" height="8.609635155731862" fill="#ffc107" /><rect x="92.23220020228945" y="45.65246633193905" width="9.365449942003995" height="9.365449942003995" fill="#ffc107" /><rect x="118.74733191493215" y="42.664025096819856" width="9.10814999285537" height="9.10814999285537" fill="#ffc107" /></svg>