<svg xmlns="http://www.w3.org/2000/svg" width="200" height="200" viewBox="0 0 200 200">
    <rect width="200" height="200" fill="transparent" />
    <text x="100" y="20" font-family="Arial" font-size="12" text-anchor="middle" fill="#666">extra_cheese</text><rect x="99.60689231017811" y="165.9962195810277" width="14.674293137593322" height="22.011439706389982" fill="#fdd835" /><rect x="100.03276993208995" y="153.02043370549617" width="15.129737840777393" height="22.69460676116609" fill="#fdd835" /><circle cx="118.70697098140297" cy="164.44278118107616" r="9.553972853869638" fill="#fdd835" /><rect x="106.78761463231976" y="75.25574086502581" width="11.428641113161504" height="17.142961669742256" fill="#fdd835" /><circle cx="111.20225678060993" cy="111.38659042586534" r="6.899943170616122" fill="#fdd835" /><circle cx="154.76738818206255" cy="175.78014605133313" r="11.359634277614466" fill="#fdd835" /><circle cx="72.17717536275217" cy="52.64281478072597" r="18.199400151631338" fill="#fdd835" /><circle cx="116.67901380457107" cy="125.04757998328527" r="7.141692238487512" fill="#fdd835" /><rect x="28.741911801436693" y="169.87748869905369" width="14.26450459486999" height="21.396756892304985" fill="#fdd835" /><circle cx="37.263259584916675" cy="99.40430539013153" r="17.67705627051921" fill="#fdd835" /><circle cx="176.26882075461552" cy="67.39293239334133" r="18.119403306811012" fill="#fdd835" /><circle cx="49.65938867563125" cy="84.44712046754378" r="16.621775108513397" fill="#fdd835" /><circle cx="112.32362351882152" cy="129.74147648779518" r="13.545249088292483" fill="#fdd835" /><rect x="124.72379099838054" y="102.27376276385557" width="18.734558539393618" height="28.101837809090426" fill="#fdd835" /><rect x="53.07492399656655" y="159.0776212155587" width="17.224960575770634" height="25.83744086365595" fill="#fdd835" /><rect x="136.7503272675799" y="128.191220408363" width="8.173202308738702" height="12.259803463108053" fill="#fdd835" /></svg>