<svg xmlns="http://www.w3.org/2000/svg" width="200" height="200" viewBox="0 0 200 200">
    <rect width="200" height="200" fill="transparent" />
    <text x="100" y="20" font-family="Arial" font-size="12" text-anchor="middle" fill="#666">mushroom</text><circle cx="85.20010769876055" cy="152.61141544559234" r="19.131317047196994" fill="#9e9e9e" /><rect x="75.63444917516205" y="152.61141544559234" width="19.131317047196994" height="13.391921933037896" fill="#bdbdbd" /><circle cx="64.1793899805327" cy="116.64511696172825" r="8.66760597499796" fill="#9e9e9e" /><rect x="59.84558699303373" y="116.64511696172825" width="8.66760597499796" height="6.067324182498571" fill="#bdbdbd" /><circle cx="88.67513184634468" cy="90.15959162033326" r="5.809878753182681" fill="#9e9e9e" /><rect x="85.77019246975334" y="90.15959162033326" width="5.809878753182681" height="4.066915127227876" fill="#bdbdbd" /><circle cx="117.5799744851954" cy="119.60452143461221" r="16.255989853549714" fill="#9e9e9e" /><rect x="109.45197955842053" y="119.60452143461221" width="16.255989853549714" height="11.3791928974848" fill="#bdbdbd" /><circle cx="116.75946728514909" cy="155.08148362601793" r="9.2794251905113" fill="#9e9e9e" /><rect x="112.11975468989344" y="155.08148362601793" width="9.2794251905113" height="6.49559763335791" fill="#bdbdbd" /><circle cx="23.039981773058607" cy="57.27966406529674" r="17.191190679538103" fill="#9e9e9e" /><rect x="14.444386433289555" y="57.27966406529674" width="17.191190679538103" height="12.033833475676671" fill="#bdbdbd" /><circle cx="34.60616899665819" cy="40.812517993379515" r="10.053282364365502" fill="#9e9e9e" /><rect x="29.57952781447544" y="40.812517993379515" width="10.053282364365502" height="7.037297655055851" fill="#bdbdbd" /><circle cx="96.31126868162625" cy="135.9538292435056" r="16.84457067121429" fill="#9e9e9e" /><rect x="87.8889833460191" y="135.9538292435056" width="16.84457067121429" height="11.791199469850001" fill="#bdbdbd" /><circle cx="21.68742152084011" cy="53.879454308884505" r="16.85400106178617" fill="#9e9e9e" /><rect x="13.260420989947026" y="53.879454308884505" width="16.85400106178617" height="11.797800743250319" fill="#bdbdbd" /><circle cx="27.83981189266644" cy="107.66072021182279" r="10.667858995350478" fill="#9e9e9e" /><rect x="22.5058823949912" y="107.66072021182279" width="10.667858995350478" height="7.4675012967453345" fill="#bdbdbd" /><circle cx="63.47526652512407" cy="106.13653499410566" r="11.840256495109589" fill="#9e9e9e" /><rect x="57.55513827756928" y="106.13653499410566" width="11.840256495109589" height="8.288179546576712" fill="#bdbdbd" /><circle cx="159.661410616296" cy="89.62643274423641" r="13.931007032643747" fill="#9e9e9e" /><rect x="152.69590709997414" y="89.62643274423641" width="13.931007032643747" height="9.751704922850623" fill="#bdbdbd" /><circle cx="34.79156330399402" cy="136.21619633176564" r="18.66274767383854" fill="#9e9e9e" /><rect x="25.46018946707475" y="136.21619633176564" width="18.66274767383854" height="13.063923371686975" fill="#bdbdbd" /><circle cx="171.2483916864195" cy="98.02100702906904" r="11.463086462874378" fill="#9e9e9e" /><rect x="165.5168484549823" y="98.02100702906904" width="11.463086462874378" height="8.024160524012064" fill="#bdbdbd" /><circle cx="115.51598567752902" cy="47.83849435867538" r="15.710039476968646" fill="#9e9e9e" /><rect x="107.6609659390447" y="47.83849435867538" width="15.710039476968646" height="10.997027633878051" fill="#bdbdbd" /><circle cx="106.86620967610395" cy="171.03694794668317" r="11.53162792241562" fill="#9e9e9e" /><rect x="101.10039571489614" y="171.03694794668317" width="11.53162792241562" height="8.072139545690934" fill="#bdbdbd" /><circle cx="71.4649162868384" cy="166.46472993624306" r="14.183467296093372" fill="#9e9e9e" /><rect x="64.37318263879172" y="166.46472993624306" width="14.183467296093372" height="9.92842710726536" fill="#bdbdbd" /><circle cx="83.52935924920277" cy="152.2159653114545" r="10.951397684195229" fill="#9e9e9e" /><rect x="78.05366040710516" y="152.2159653114545" width="10.951397684195229" height="7.66597837893666" fill="#bdbdbd" /><circle cx="58.11020925622696" cy="144.23089399175115" r="9.861395971232158" fill="#9e9e9e" /><rect x="53.17951127061088" y="144.23089399175115" width="9.861395971232158" height="6.90297717986251" fill="#bdbdbd" /></svg>