<svg xmlns="http://www.w3.org/2000/svg" width="200" height="200" viewBox="0 0 200 200">
    <rect width="200" height="200" fill="transparent" />
    <text x="100" y="20" font-family="Arial" font-size="12" text-anchor="middle" fill="#666">bacon</text><rect x="131.2981840158436" y="53.250459777946375" width="19.047243769815445" height="28.570865654723168" fill="#d84315" /><circle cx="100.41580251638877" cy="114.08377292932467" r="18.454416245522008" fill="#d84315" /><circle cx="87.33547472014877" cy="50.023618217048536" r="16.127748408864516" fill="#d84315" /><rect x="20.851705592704278" y="159.5896502118657" width="5.164201078927833" height="7.74630161839175" fill="#d84315" /><rect x="134.94438473605356" y="68.47383880362813" width="9.254474776783173" height="13.88171216517476" fill="#d84315" /><rect x="130.51227212879076" y="163.2937130067728" width="11.92401909630591" height="17.886028644458865" fill="#d84315" /><circle cx="72.0573134424356" cy="177.55684652335788" r="16.776115971573624" fill="#d84315" /><circle cx="169.9939276506803" cy="66.61008312932611" r="18.405371414077123" fill="#d84315" /><rect x="162.274532467051" y="126.97301629090252" width="8.664087902242994" height="12.99613185336449" fill="#d84315" /><circle cx="40.109298765904065" cy="132.37140592929364" r="14.796183996351935" fill="#d84315" /><rect x="134.12894022656366" y="92.04806856478304" width="10.820707710513506" height="16.23106156577026" fill="#d84315" /><rect x="108.15292888574959" y="23.510741511545607" width="13.592165153065153" height="20.38824772959773" fill="#d84315" /><rect x="122.77697959405783" y="26.262792150415375" width="9.748699046488435" height="14.623048569732653" fill="#d84315" /><rect x="93.65339213515675" y="141.7785834831562" width="18.522284643183575" height="27.783426964775362" fill="#d84315" /><circle cx="96.4504233227548" cy="82.01299113489877" r="19.13719563615503" fill="#d84315" /></svg>