<svg xmlns="http://www.w3.org/2000/svg" width="200" height="200" viewBox="0 0 200 200">
    <rect width="200" height="200" fill="transparent" />
    <text x="100" y="20" font-family="Arial" font-size="12" text-anchor="middle" fill="#666">green_pepper</text><circle cx="89.15047709649212" cy="66.911229242606" r="5.135768629001149" fill="#43a047" /><circle cx="89.15047709649212" cy="66.911229242606" r="3.0814611774006893" fill="#f5f5f5" /><circle cx="87.82278658233426" cy="162.77947690469006" r="5.207537805480154" fill="#43a047" /><circle cx="87.82278658233426" cy="162.77947690469006" r="3.124522683288092" fill="#f5f5f5" /><circle cx="127.63037302635446" cy="111.66296739671091" r="14.032733570282426" fill="#43a047" /><circle cx="127.63037302635446" cy="111.66296739671091" r="8.419640142169456" fill="#f5f5f5" /><circle cx="151.00055224680335" cy="30.967549492584574" r="11.155687075996049" fill="#43a047" /><circle cx="151.00055224680335" cy="30.967549492584574" r="6.693412245597629" fill="#f5f5f5" /><circle cx="174.29297674169283" cy="65.06056023939281" r="9.031632908907941" fill="#43a047" /><circle cx="174.29297674169283" cy="65.06056023939281" r="5.418979745344765" fill="#f5f5f5" /><circle cx="61.989769653725624" cy="66.6966823990413" r="13.617946384029597" fill="#43a047" /><circle cx="61.989769653725624" cy="66.6966823990413" r="8.170767830417757" fill="#f5f5f5" /><circle cx="154.1029068192411" cy="132.74233670388642" r="7.2618395787787176" fill="#43a047" /><circle cx="154.1029068192411" cy="132.74233670388642" r="4.357103747267231" fill="#f5f5f5" /><circle cx="112.49221997291407" cy="88.7415543256317" r="16.645790684188334" fill="#43a047" /><circle cx="112.49221997291407" cy="88.7415543256317" r="9.987474410513" fill="#f5f5f5" /><circle cx="143.13240822490852" cy="125.98096534952157" r="13.802881135685233" fill="#43a047" /><circle cx="143.13240822490852" cy="125.98096534952157" r="8.28172868141114" fill="#f5f5f5" /><circle cx="156.64300794306385" cy="71.5411062403347" r="17.55262248096522" fill="#43a047" /><circle cx="156.64300794306385" cy="71.5411062403347" r="10.53157348857913" fill="#f5f5f5" /><circle cx="153.47771207295443" cy="148.3486224349047" r="17.270840252809776" fill="#43a047" /><circle cx="153.47771207295443" cy="148.3486224349047" r="10.362504151685865" fill="#f5f5f5" /><circle cx="104.33449972194282" cy="38.76709251603465" r="8.35161273249819" fill="#43a047" /><circle cx="104.33449972194282" cy="38.76709251603465" r="5.010967639498913" fill="#f5f5f5" /><circle cx="85.68831196897975" cy="103.46417028156388" r="14.92291403790969" fill="#43a047" /><circle cx="85.68831196897975" cy="103.46417028156388" r="8.953748422745814" fill="#f5f5f5" /><circle cx="93.81867663160882" cy="155.01377534030195" r="9.939001736146746" fill="#43a047" /><circle cx="93.81867663160882" cy="155.01377534030195" r="5.963401041688048" fill="#f5f5f5" /><circle cx="125.62309577564655" cy="62.31705657002132" r="5.638390033795954" fill="#43a047" /><circle cx="125.62309577564655" cy="62.31705657002132" r="3.3830340202775724" fill="#f5f5f5" /><circle cx="158.5700202328685" cy="155.60974366844644" r="17.016190488206128" fill="#43a047" /><circle cx="158.5700202328685" cy="155.60974366844644" r="10.209714292923676" fill="#f5f5f5" /><circle cx="122.74356359149735" cy="73.97236945687993" r="15.276262015371397" fill="#43a047" /><circle cx="122.74356359149735" cy="73.97236945687993" r="9.165757209222837" fill="#f5f5f5" /><circle cx="37.01089854283637" cy="99.83314925841329" r="13.943026583118954" fill="#43a047" /><circle cx="37.01089854283637" cy="99.83314925841329" r="8.365815949871372" fill="#f5f5f5" /></svg>